<?xml version="1.0" encoding="utf-8"?>
<!-- Generator: Adobe Illustrator 15.0.0, SVG Export Plug-In . SVG Version: 6.00 Build 0)  -->
<!DOCTYPE svg PUBLIC "-//W3C//DTD SVG 1.1//EN" "http://www.w3.org/Graphics/SVG/1.1/DTD/svg11.dtd">
<svg version="1.1" id="Layer_1" xmlns="http://www.w3.org/2000/svg" xmlns:xlink="http://www.w3.org/1999/xlink" x="0px" y="0px"
	 width="400px" height="51px" viewBox="0 0 400 51" enable-background="new 0 0 400 51" xml:space="preserve">
<g>
	<path opacity="0.25" d="M16.751,0.879c3.779,0,6.717,0.951,8.817,2.854c2.099,1.903,3.149,4.798,3.149,8.688
		c0,3.011-0.61,5.468-1.826,7.371c-1.219,1.903-3.108,3.126-5.669,3.67v0.125c2.268,0.336,3.926,1.067,4.976,2.196
		c1.049,1.129,1.7,2.948,1.953,5.458c0.083,0.837,0.146,1.746,0.188,2.728c0.042,0.984,0.083,2.082,0.126,3.294
		c0.083,2.384,0.21,4.203,0.377,5.458c0.251,1.254,0.797,2.113,1.638,2.57v0.378h-9.825c-0.462-0.627-0.755-1.349-0.882-2.166
		c-0.125-0.813-0.21-1.661-0.251-2.539l-0.252-8.594c-0.084-1.756-0.525-3.135-1.323-4.14c-0.797-1.004-2.142-1.506-4.03-1.506
		h-4.85v18.945H0V0.879H16.751z M12.847,20.451c2.182,0,3.862-0.512,5.039-1.537c1.175-1.025,1.763-2.75,1.763-5.175
		c0-4.14-2.1-6.211-6.298-6.211H9.068v12.924H12.847z"/>
	<path opacity="0.25" d="M25.914,13.895c0.315-2.864,1.008-5.321,2.078-7.37c1.071-2.049,2.614-3.648,4.629-4.799
		C34.636,0.576,37.343,0,40.745,0c3.401,0,6.109,0.576,8.124,1.726c2.016,1.151,3.559,2.75,4.629,4.799
		c1.07,2.049,1.763,4.506,2.078,7.37c0.314,2.865,0.473,5.992,0.473,9.379c0,3.429-0.158,6.565-0.473,9.411
		c-0.315,2.843-1.008,5.29-2.078,7.34c-1.07,2.048-2.613,3.617-4.629,4.704c-2.015,1.087-4.723,1.63-8.124,1.63
		c-3.401,0-6.109-0.543-8.124-1.63c-2.015-1.087-3.558-2.656-4.629-4.704c-1.07-2.05-1.763-4.497-2.078-7.34
		c-0.315-2.845-0.472-5.981-0.472-9.411C25.441,19.887,25.599,16.76,25.914,13.895z M34.73,30.959
		c0.146,2.111,0.441,3.825,0.881,5.143c0.441,1.315,1.071,2.281,1.89,2.885c0.818,0.606,1.899,0.911,3.243,0.911
		c1.343,0,2.424-0.304,3.243-0.911c0.819-0.604,1.449-1.57,1.89-2.885c0.441-1.318,0.734-3.032,0.882-5.143
		c0.147-2.113,0.221-4.675,0.221-7.686c0-3.011-0.074-5.562-0.221-7.653c-0.147-2.091-0.44-3.805-0.882-5.144
		c-0.44-1.339-1.07-2.311-1.89-2.918c-0.818-0.605-1.9-0.909-3.243-0.909c-1.344,0-2.425,0.304-3.243,0.909
		c-0.818,0.607-1.448,1.579-1.89,2.918c-0.44,1.338-0.735,3.053-0.881,5.144c-0.147,2.091-0.22,4.642-0.22,7.653
		C34.51,26.284,34.583,28.846,34.73,30.959z"/>
	<path opacity="0.25" d="M68.077,0.879c3.149,0,5.688,0.512,7.62,1.536c1.931,1.025,3.433,2.489,4.503,4.391
		c1.07,1.903,1.795,4.194,2.173,6.869c0.378,2.677,0.567,5.667,0.567,8.97c0,3.932-0.243,7.35-0.725,10.256
		c-0.482,2.909-1.312,5.301-2.486,7.185c-1.177,1.88-2.751,3.281-4.724,4.201c-1.974,0.921-4.471,1.381-7.494,1.381H53.214V0.879
		H68.077z M66.313,39.019c1.595,0,2.875-0.271,3.841-0.816c0.966-0.542,1.731-1.442,2.299-2.696
		c0.566-1.255,0.944-2.906,1.133-4.957c0.188-2.048,0.283-4.6,0.283-7.652c0-2.551-0.084-4.789-0.251-6.712
		c-0.169-1.923-0.515-3.523-1.04-4.799c-0.525-1.275-1.302-2.237-2.33-2.886c-1.029-0.647-2.405-0.973-4.125-0.973h-3.841v31.491
		H66.313z"/>
	<path opacity="0.25" d="M97.044,0.879c3.779,0,6.717,0.951,8.817,2.854c2.099,1.903,3.149,4.798,3.149,8.688
		c0,3.011-0.61,5.468-1.827,7.371c-1.218,1.903-3.108,3.126-5.668,3.67v0.125c2.268,0.336,3.926,1.067,4.976,2.196
		c1.049,1.129,1.7,2.948,1.953,5.458c0.083,0.837,0.146,1.746,0.188,2.728c0.042,0.984,0.083,2.082,0.126,3.294
		c0.083,2.384,0.21,4.203,0.377,5.458c0.251,1.254,0.797,2.113,1.638,2.57v0.378h-9.825c-0.462-0.627-0.755-1.349-0.882-2.166
		c-0.125-0.813-0.21-1.661-0.251-2.539l-0.252-8.594c-0.084-1.756-0.525-3.135-1.323-4.14c-0.797-1.004-2.142-1.506-4.03-1.506
		h-4.85v18.945h-9.068V0.879H97.044z M93.14,20.451c2.182,0,3.862-0.512,5.039-1.537c1.175-1.025,1.763-2.75,1.763-5.175
		c0-4.14-2.1-6.211-6.298-6.211h-4.282v12.924H93.14z"/>
	<path opacity="0.25" d="M107.12,0.879h9.068v44.789h-9.068V0.879z"/>
	<path opacity="0.25" d="M133.979,11.606c-0.19-0.878-0.494-1.683-0.913-2.416c-0.42-0.731-0.957-1.337-1.606-1.819
		c-0.652-0.48-1.439-0.722-2.361-0.722c-2.184,0-3.758,1.213-4.724,3.638c-0.966,2.427-1.448,6.441-1.448,12.044
		c0,2.678,0.084,5.103,0.252,7.276c0.167,2.176,0.473,4.027,0.913,5.552c0.441,1.528,1.071,2.699,1.89,3.513
		c0.818,0.816,1.878,1.226,3.18,1.226c0.545,0,1.144-0.147,1.796-0.44c0.65-0.292,1.259-0.73,1.826-1.318
		c0.567-0.583,1.039-1.326,1.417-2.226c0.378-0.897,0.567-1.953,0.567-3.166v-4.581h-5.982v-6.649h14.673v24.151h-6.675v-4.14
		h-0.125c-1.092,1.756-2.405,3-3.936,3.733c-1.534,0.73-3.37,1.097-5.511,1.097c-2.771,0-5.028-0.48-6.771-1.443
		c-1.742-0.961-3.107-2.444-4.093-4.455c-0.987-2.006-1.648-4.484-1.984-7.433c-0.336-2.948-0.503-6.367-0.503-10.256
		c0-3.765,0.241-7.067,0.725-9.911c0.481-2.844,1.311-5.216,2.487-7.121c1.175-1.902,2.729-3.334,4.661-4.296
		C123.661,0.481,126.076,0,128.972,0c4.954,0,8.523,1.223,10.707,3.669c2.181,2.447,3.274,5.95,3.274,10.508h-8.69
		C134.263,13.342,134.168,12.484,133.979,11.606z"/>
	<path opacity="0.5" d="M140.212,13.895c0.316-2.864,1.007-5.321,2.077-7.37c1.072-2.049,2.616-3.648,4.63-4.799
		C148.934,0.576,151.643,0,155.042,0c3.402,0,6.109,0.576,8.125,1.726c2.016,1.151,3.558,2.75,4.628,4.799
		c1.07,2.049,1.765,4.506,2.079,7.37c0.314,2.865,0.474,5.992,0.474,9.379c0,3.429-0.16,6.565-0.474,9.411
		c-0.314,2.843-1.009,5.29-2.079,7.34c-1.07,2.048-2.612,3.617-4.628,4.704c-2.016,1.087-4.723,1.63-8.125,1.63
		c-3.4,0-6.109-0.543-8.123-1.63c-2.014-1.087-3.558-2.656-4.63-4.704c-1.07-2.05-1.761-4.497-2.077-7.34
		c-0.315-2.845-0.472-5.981-0.472-9.411C139.741,19.887,139.897,16.76,140.212,13.895z M149.03,30.959
		c0.146,2.111,0.44,3.825,0.881,5.143c0.442,1.315,1.07,2.281,1.89,2.885c0.819,0.606,1.898,0.911,3.242,0.911
		s2.427-0.304,3.244-0.911c0.819-0.604,1.449-1.57,1.89-2.885c0.44-1.318,0.735-3.032,0.882-5.143
		c0.147-2.113,0.219-4.675,0.219-7.686c0-3.011-0.072-5.562-0.219-7.653c-0.147-2.091-0.442-3.805-0.882-5.144
		c-0.44-1.339-1.07-2.311-1.89-2.918c-0.817-0.605-1.9-0.909-3.244-0.909s-2.422,0.304-3.242,0.909
		c-0.82,0.607-1.447,1.579-1.89,2.918c-0.44,1.338-0.735,3.053-0.881,5.144c-0.147,2.091-0.221,4.642-0.221,7.653
		C148.809,26.284,148.883,28.846,149.03,30.959z"/>
	<path opacity="0.5" d="M196.057,45.668c-1.681,0.459-3.674,0.69-5.982,0.69c-3.402,0-6.109-0.543-8.125-1.63
		c-2.016-1.087-3.558-2.656-4.628-4.704c-1.07-2.05-1.766-4.497-2.079-7.34c-0.314-2.845-0.472-5.981-0.472-9.411
		c0-3.387,0.158-6.514,0.472-9.379c0.313-2.864,1.009-5.321,2.079-7.37c1.07-2.049,2.612-3.648,4.628-4.799
		C183.965,0.576,186.672,0,190.074,0c3.4,0,6.109,0.576,8.123,1.726c2.016,1.151,3.56,2.75,4.63,4.799
		c1.07,2.049,1.761,4.506,2.077,7.37c0.316,2.865,0.472,5.992,0.472,9.379c0,3.806-0.211,7.258-0.628,10.351
		c-0.421,3.095-1.365,5.708-2.835,7.841l4.849,4.705L201.409,51L196.057,45.668z M184.058,30.959
		c0.147,2.111,0.442,3.825,0.883,5.143c0.44,1.315,1.072,2.281,1.89,2.885c0.817,0.606,1.9,0.911,3.244,0.911
		c1.342,0,2.422-0.304,3.242-0.911c0.819-0.604,1.449-1.57,1.89-2.885c0.442-1.318,0.733-3.032,0.88-5.143
		c0.147-2.113,0.224-4.675,0.224-7.686c0-3.011-0.076-5.562-0.224-7.653c-0.147-2.091-0.438-3.805-0.88-5.144
		c-0.44-1.339-1.07-2.311-1.89-2.918c-0.819-0.605-1.9-0.909-3.242-0.909c-1.344,0-2.427,0.304-3.244,0.909
		c-0.817,0.607-1.449,1.579-1.89,2.918c-0.44,1.338-0.735,3.053-0.883,5.144c-0.147,2.091-0.219,4.642-0.219,7.653
		C183.839,26.284,183.91,28.846,184.058,30.959z"/>
	<path opacity="0.25" d="M210.604,32.118c0,1.129,0.071,2.165,0.219,3.105c0.147,0.942,0.419,1.758,0.817,2.446
		c0.4,0.69,0.946,1.234,1.639,1.633c0.691,0.396,1.563,0.596,2.612,0.596c1.091,0,1.974-0.199,2.646-0.596
		c0.67-0.399,1.207-0.942,1.605-1.633c0.4-0.688,0.672-1.504,0.819-2.446c0.146-0.94,0.221-1.977,0.221-3.105V0.879h9.069v31.238
		c0,2.845-0.4,5.197-1.197,7.059c-0.798,1.861-1.868,3.336-3.212,4.423c-1.344,1.087-2.877,1.817-4.596,2.195
		c-1.723,0.375-3.505,0.564-5.355,0.564c-1.845,0-3.632-0.167-5.351-0.501c-1.723-0.335-3.257-1.015-4.599-2.039
		c-1.344-1.024-2.416-2.478-3.212-4.36c-0.796-1.88-1.196-4.327-1.196-7.34V0.879h9.071V32.118z"/>
	<path opacity="0.25" d="M247.317,0.879l11.902,44.789h-9.446l-2.077-9.472h-11.965l-2.079,9.472h-9.448l11.904-44.789H247.317z
		 M246.12,28.794l-4.343-20.137h-0.126l-4.346,20.137H246.12z"/>
	<path opacity="0.25" d="M272.65,0.879c3.779,0,6.716,0.951,8.816,2.854c2.1,1.903,3.149,4.798,3.149,8.688
		c0,3.011-0.611,5.468-1.827,7.371c-1.22,1.903-3.107,3.126-5.668,3.67v0.125c2.267,0.336,3.926,1.067,4.976,2.196
		c1.049,1.129,1.7,2.948,1.953,5.458c0.082,0.837,0.146,1.746,0.188,2.728c0.042,0.984,0.084,2.082,0.126,3.294
		c0.084,2.384,0.21,4.203,0.379,5.458c0.251,1.254,0.796,2.113,1.637,2.57v0.378h-9.825c-0.461-0.627-0.756-1.349-0.882-2.166
		c-0.125-0.813-0.211-1.661-0.251-2.539l-0.25-8.594c-0.084-1.756-0.527-3.135-1.323-4.14c-0.798-1.004-2.142-1.506-4.032-1.506
		h-4.849v18.945h-9.066V0.879H272.65z M268.745,20.451c2.182,0,3.863-0.512,5.039-1.537c1.175-1.025,1.763-2.75,1.763-5.175
		c0-4.14-2.1-6.211-6.298-6.211h-4.283v12.924H268.745z"/>
	<path opacity="0.25" d="M307.412,8.281h-16.058V18.82h15.115v7.401h-15.115v12.044h16.69v7.403h-25.759V0.879h25.126V8.281z"/>
	<path opacity="0.25" d="M311.252,32.997c0,1.047,0.084,1.998,0.253,2.856c0.167,0.856,0.482,1.578,0.946,2.161
		c0.459,0.588,1.079,1.047,1.856,1.38c0.777,0.336,1.752,0.504,2.93,0.504c1.384,0,2.633-0.449,3.745-1.349s1.668-2.289,1.668-4.173
		c0-1.003-0.135-1.87-0.409-2.602c-0.274-0.73-0.725-1.389-1.353-1.977c-0.632-0.583-1.462-1.116-2.49-1.599
		c-1.028-0.48-2.298-0.973-3.809-1.474c-2.016-0.668-3.758-1.4-5.229-2.196c-1.47-0.794-2.696-1.725-3.682-2.792
		c-0.988-1.065-1.712-2.298-2.174-3.7c-0.463-1.4-0.693-3.021-0.693-4.862c0-4.432,1.238-7.736,3.716-9.911
		C309.006,1.088,312.406,0,316.731,0c2.016,0,3.874,0.22,5.574,0.659c1.7,0.439,3.168,1.15,4.407,2.133
		c1.239,0.983,2.208,2.238,2.898,3.764s1.041,3.356,1.041,5.489v1.254h-8.691c0-2.133-0.379-3.774-1.133-4.923
		c-0.758-1.15-2.018-1.726-3.779-1.726c-1.007,0-1.849,0.147-2.519,0.439c-0.672,0.293-1.209,0.68-1.605,1.161
		c-0.4,0.481-0.674,1.035-0.819,1.663c-0.147,0.627-0.221,1.276-0.221,1.944c0,1.381,0.295,2.541,0.88,3.482
		c0.59,0.939,1.85,1.808,3.779,2.603l6.992,3.011c1.721,0.752,3.128,1.537,4.219,2.352c1.091,0.815,1.963,1.694,2.612,2.634
		c0.653,0.941,1.104,1.977,1.356,3.106c0.253,1.129,0.375,2.384,0.375,3.764c0,4.726-1.374,8.165-4.125,10.317
		c-2.749,2.155-6.581,3.231-11.493,3.231c-5.123,0-8.784-1.108-10.988-3.326c-2.204-2.216-3.307-5.393-3.307-9.534v-1.82h9.068
		V32.997z"/>
	<path opacity="0.25" d="M341.668,0.879l6.425,31.616h0.124l6.488-31.616h13.414v44.789h-8.314V9.912h-0.126l-7.996,35.756h-7.055
		l-7.997-35.756h-0.126v35.756h-8.314V0.879H341.668z"/>
	<path opacity="0.25" d="M388.098,0.879L400,45.668h-9.446l-2.079-9.472H376.51l-2.079,9.472h-9.446l11.902-44.789H388.098z
		 M386.901,28.794l-4.346-20.137h-0.126l-4.346,20.137H386.901z"/>
</g>
</svg>
