<?xml version="1.0" encoding="utf-8"?>
<!-- Generator: Adobe Illustrator 15.0.0, SVG Export Plug-In . SVG Version: 6.00 Build 0)  -->
<!DOCTYPE svg PUBLIC "-//W3C//DTD SVG 1.1//EN" "http://www.w3.org/Graphics/SVG/1.1/DTD/svg11.dtd">
<svg version="1.1" id="Layer_1" xmlns="http://www.w3.org/2000/svg" xmlns:xlink="http://www.w3.org/1999/xlink" x="0px" y="0px"
	 width="400px" height="45px" viewBox="0 0 400 45" enable-background="new 0 0 400 45" xml:space="preserve">
<g>
	<path d="M0,0.828h7.276c4.849,0,8.133,0.187,9.851,0.559c1.717,0.374,3.116,1.326,4.199,2.86c1.083,1.533,1.624,3.979,1.624,7.337
		c0,3.067-0.383,5.127-1.147,6.183c-0.765,1.054-2.271,1.687-4.517,1.898c2.034,0.503,3.401,1.176,4.101,2.02
		c0.7,0.843,1.135,1.618,1.306,2.324c0.171,0.706,0.256,2.65,0.256,5.83V40.23h-9.545V27.136c0-2.107-0.167-3.415-0.501-3.918
		c-0.334-0.503-1.208-0.754-2.624-0.754V40.23H0V0.828z M10.279,7.569v8.761c1.155,0,1.965-0.158,2.429-0.475
		c0.463-0.316,0.696-1.342,0.696-3.078v-2.167c0-1.249-0.224-2.068-0.672-2.458C12.284,7.763,11.466,7.569,10.279,7.569z"/>
	<path d="M50.413,23.9c0,3.959-0.093,6.762-0.28,8.408c-0.188,1.647-0.773,3.153-1.759,4.515c-0.984,1.364-2.315,2.411-3.991,3.141
		c-1.676,0.73-3.629,1.094-5.859,1.094c-2.115,0-4.015-0.344-5.7-1.034c-1.684-0.69-3.04-1.724-4.065-3.104
		c-1.025-1.378-1.636-2.878-1.831-4.502c-0.195-1.622-0.293-4.461-0.293-8.518v-6.742c0-3.958,0.094-6.761,0.281-8.409
		c0.187-1.646,0.772-3.152,1.757-4.515c0.984-1.363,2.315-2.41,3.991-3.14C34.341,0.365,36.294,0,38.524,0
		c2.116,0,4.017,0.345,5.701,1.034c1.685,0.69,3.04,1.724,4.065,3.103c1.025,1.38,1.635,2.88,1.831,4.503
		c0.195,1.622,0.292,4.461,0.292,8.518V23.9z M40.135,10.952c0-1.833-0.102-3.006-0.305-3.517c-0.203-0.511-0.622-0.767-1.257-0.767
		c-0.538,0-0.948,0.207-1.233,0.621c-0.285,0.413-0.427,1.634-0.427,3.663v18.399c0,2.287,0.094,3.699,0.281,4.235
		c0.187,0.535,0.623,0.802,1.306,0.802c0.7,0,1.147-0.307,1.343-0.923c0.195-0.617,0.292-2.084,0.292-4.405V10.952z"/>
	<path d="M54.247,0.828h7.69c4.964,0,8.32,0.227,10.07,0.681c1.75,0.454,3.08,1.202,3.991,2.239
		c0.912,1.038,1.481,2.195,1.709,3.469c0.228,1.273,0.342,3.776,0.342,7.507v13.799c0,3.538-0.167,5.902-0.5,7.096
		c-0.334,1.192-0.916,2.125-1.746,2.797c-0.83,0.674-1.855,1.144-3.076,1.412c-1.221,0.269-3.06,0.402-5.518,0.402H54.247V0.828z
		 M64.525,7.569v25.918c1.48,0,2.393-0.295,2.734-0.887c0.342-0.594,0.513-2.204,0.513-4.832V12.461
		c0-1.785-0.058-2.929-0.171-3.432c-0.114-0.502-0.375-0.872-0.781-1.108C66.413,7.687,65.648,7.569,64.525,7.569z"/>
	<path d="M81.882,0.828h7.276c4.849,0,8.133,0.187,9.851,0.559c1.717,0.374,3.116,1.326,4.198,2.86
		c1.083,1.533,1.624,3.979,1.624,7.337c0,3.067-0.383,5.127-1.147,6.183c-0.765,1.054-2.271,1.687-4.517,1.898
		c2.034,0.503,3.401,1.176,4.101,2.02c0.7,0.843,1.135,1.618,1.306,2.324c0.171,0.706,0.256,2.65,0.256,5.83V40.23h-9.545V27.136
		c0-2.107-0.167-3.415-0.5-3.918c-0.334-0.503-1.208-0.754-2.624-0.754V40.23H81.882V0.828z M92.161,7.569v8.761
		c1.155,0,1.965-0.158,2.429-0.475c0.463-0.316,0.695-1.342,0.695-3.078v-2.167c0-1.249-0.224-2.068-0.671-2.458
		C94.166,7.763,93.349,7.569,92.161,7.569z"/>
	<path d="M119.088,0.828V40.23H108.81V0.828H119.088z"/>
	<path d="M146.798,15.333H136.52v-3.577c0-2.256-0.098-3.667-0.293-4.234c-0.195-0.568-0.659-0.853-1.392-0.853
		c-0.634,0-1.066,0.244-1.293,0.731c-0.228,0.486-0.342,1.735-0.342,3.748v18.91c0,1.769,0.114,2.933,0.342,3.493
		c0.228,0.559,0.683,0.839,1.367,0.839c0.749,0,1.258-0.315,1.526-0.947c0.268-0.634,0.402-1.867,0.402-3.702v-4.671h-2.075v-5.988
		h12.036V40.23h-6.459l-0.951-2.824c-0.7,1.217-1.583,2.131-2.651,2.739c-1.067,0.608-2.324,0.912-3.774,0.912
		c-1.727,0-3.343-0.417-4.849-1.254c-1.507-0.834-2.651-1.869-3.434-3.101c-0.782-1.233-1.27-2.527-1.466-3.883
		c-0.195-1.355-0.292-3.386-0.292-6.097V15.017c0-3.765,0.203-6.498,0.61-8.202c0.406-1.704,1.575-3.266,3.503-4.685
		c1.929-1.42,4.422-2.13,7.483-2.13c3.011,0,5.509,0.617,7.495,1.85c1.985,1.233,3.28,2.698,3.882,4.393
		c0.602,1.696,0.903,4.159,0.903,7.387V15.333z"/>
	<path d="M174.262,23.9c0,3.959-0.093,6.762-0.28,8.408c-0.188,1.647-0.773,3.153-1.759,4.515c-0.984,1.364-2.315,2.411-3.991,3.141
		c-1.677,0.73-3.629,1.094-5.859,1.094c-2.116,0-4.015-0.344-5.7-1.034c-1.684-0.69-3.04-1.724-4.065-3.104
		c-1.025-1.378-1.636-2.878-1.831-4.502c-0.195-1.622-0.293-4.461-0.293-8.518v-6.742c0-3.958,0.094-6.761,0.281-8.409
		c0.186-1.646,0.772-3.152,1.757-4.515c0.984-1.363,2.315-2.41,3.991-3.14C158.19,0.365,160.143,0,162.373,0
		c2.116,0,4.017,0.345,5.701,1.034c1.685,0.69,3.04,1.724,4.064,3.103c1.025,1.38,1.636,2.88,1.832,4.503
		c0.195,1.622,0.292,4.461,0.292,8.518V23.9z M163.984,10.952c0-1.833-0.102-3.006-0.305-3.517
		c-0.203-0.511-0.622-0.767-1.257-0.767c-0.538,0-0.948,0.207-1.233,0.621c-0.285,0.413-0.427,1.634-0.427,3.663v18.399
		c0,2.287,0.094,3.699,0.281,4.235c0.187,0.535,0.623,0.802,1.306,0.802c0.7,0,1.147-0.307,1.343-0.923
		c0.195-0.617,0.292-2.084,0.292-4.405V10.952z"/>
	<path d="M210.418,40.23V45h-7.764c-1.871,0-3.19-0.145-3.954-0.432c-0.765-0.289-1.282-0.715-1.55-1.281
		c-0.269-0.566-0.403-1.587-0.403-3.058c-2.327-0.065-4.329-0.673-6.005-1.826c-1.677-1.152-2.783-2.616-3.32-4.393
		c-0.538-1.777-0.806-4.433-0.806-7.969V13.848c0-2.677,0.159-4.717,0.476-6.121c0.318-1.404,0.973-2.726,1.966-3.967
		c0.992-1.241,2.27-2.178,3.832-2.811C194.453,0.317,196.186,0,198.09,0c2.294,0,4.34,0.39,6.14,1.168
		c1.798,0.779,3.141,1.768,4.027,2.969c0.887,1.2,1.465,2.445,1.734,3.734c0.27,1.29,0.403,3.208,0.403,5.754v12.796
		c0,3.505-0.171,5.88-0.514,7.129c-0.343,1.249-0.997,2.243-1.965,2.981c-0.968,0.737-2.258,1.301-3.87,1.69
		c0.05,0.88,0.232,1.437,0.548,1.664c0.318,0.23,1.071,0.343,2.26,0.343H210.418z M200.116,10.952c0-1.833-0.102-3.006-0.305-3.517
		c-0.203-0.511-0.622-0.767-1.257-0.767c-0.538,0-0.948,0.207-1.233,0.621c-0.285,0.413-0.427,1.634-0.427,3.663v18.399
		c0,2.287,0.094,3.699,0.281,4.235c0.188,0.535,0.623,0.802,1.306,0.802c0.7,0,1.147-0.307,1.343-0.923
		c0.195-0.617,0.292-2.084,0.292-4.405V10.952z"/>
	<path d="M237.592,0.828v26.333c0,2.986-0.097,5.083-0.294,6.291c-0.194,1.21-0.772,2.451-1.732,3.725s-2.226,2.239-3.796,2.896
		c-1.571,0.659-3.422,0.986-5.554,0.986c-2.36,0-4.444-0.388-6.25-1.167c-1.806-0.78-3.157-1.794-4.052-3.043
		c-0.895-1.249-1.423-2.567-1.587-3.955c-0.164-1.389-0.244-4.303-0.244-8.75V0.828h10.278v29.545c0,1.72,0.094,2.819,0.281,3.297
		c0.187,0.479,0.565,0.717,1.134,0.717c0.652,0,1.07-0.264,1.258-0.79c0.187-0.527,0.281-1.772,0.281-3.734V0.828H237.592z"/>
	<path d="M259.336,0.828l5.877,39.402H254.71l-0.552-7.082h-3.676l-0.619,7.082h-10.626l5.245-39.402H259.336z M253.89,26.162
		c-0.521-4.462-1.042-9.978-1.565-16.549c-1.047,7.545-1.705,13.062-1.972,16.549H253.89z"/>
	<path d="M266.959,0.828h7.275c4.85,0,8.135,0.187,9.851,0.559c1.717,0.374,3.117,1.326,4.199,2.86
		c1.082,1.533,1.624,3.979,1.624,7.337c0,3.067-0.383,5.127-1.147,6.183c-0.766,1.054-2.271,1.687-4.515,1.898
		c2.034,0.503,3.4,1.176,4.101,2.02c0.699,0.843,1.134,1.618,1.305,2.324c0.172,0.706,0.257,2.65,0.257,5.83V40.23h-9.546V27.136
		c0-2.107-0.167-3.415-0.5-3.918c-0.333-0.503-1.209-0.754-2.624-0.754V40.23h-10.278V0.828z M277.238,7.569v8.761
		c1.154,0,1.965-0.158,2.429-0.475c0.465-0.316,0.696-1.342,0.696-3.078v-2.167c0-1.249-0.224-2.068-0.671-2.458
		C279.243,7.763,278.425,7.569,277.238,7.569z"/>
	<path d="M293.889,0.828h17.139v7.885h-6.86v7.472h6.419v7.496h-6.419v8.664h7.543v7.886h-17.821V0.828z"/>
	<path d="M336.441,12.753h-9.546V9.833c0-1.363-0.124-2.23-0.368-2.604c-0.244-0.373-0.649-0.56-1.219-0.56
		c-0.619,0-1.087,0.252-1.403,0.756c-0.318,0.503-0.477,1.266-0.477,2.289c0,1.314,0.179,2.306,0.535,2.971
		c0.339,0.667,1.309,1.469,2.905,2.409c4.574,2.707,7.456,4.928,8.643,6.665c1.189,1.737,1.783,4.534,1.783,8.396
		c0,2.808-0.33,4.877-0.988,6.207c-0.659,1.331-1.932,2.446-3.822,3.346c-1.886,0.9-4.084,1.351-6.591,1.351
		c-2.751,0-5.099-0.519-7.042-1.557c-1.947-1.037-3.219-2.361-3.821-3.968c-0.602-1.605-0.903-3.885-0.903-6.839v-2.578h9.544v4.793
		c0,1.477,0.136,2.426,0.405,2.848c0.268,0.422,0.744,0.632,1.428,0.632c0.683,0,1.191-0.267,1.525-0.802
		c0.334-0.536,0.5-1.331,0.5-2.386c0-2.32-0.316-3.836-0.952-4.551c-0.652-0.713-2.254-1.906-4.81-3.577
		c-2.555-1.687-4.248-2.912-5.077-3.675s-1.519-1.817-2.064-3.164c-0.545-1.346-0.816-3.066-0.816-5.159
		c0-3.018,0.385-5.224,1.157-6.62c0.774-1.396,2.023-2.487,3.75-3.274c1.724-0.787,3.806-1.18,6.248-1.18
		c2.669,0,4.944,0.43,6.824,1.291c1.879,0.859,3.125,1.943,3.736,3.249c0.61,1.306,0.917,3.525,0.917,6.657V12.753z"/>
	<path d="M372.231,0.828V40.23h-8.984l-0.014-26.601l-3.575,26.601h-6.372l-3.773-25.993l-0.012,25.993h-8.984V0.828h13.299
		c0.395,2.369,0.801,5.161,1.221,8.375l1.458,10.022l2.363-18.398H372.231z"/>
	<path d="M394.123,0.828L400,40.23h-10.504l-0.55-7.082h-3.678l-0.617,7.082h-10.626l5.243-39.402H394.123z M388.676,26.162
		c-0.522-4.462-1.044-9.978-1.567-16.549c-1.047,7.545-1.704,13.062-1.972,16.549H388.676z"/>
</g>
</svg>
