<?xml version="1.0" encoding="utf-8"?>
<!-- Generator: Adobe Illustrator 17.1.0, SVG Export Plug-In . SVG Version: 6.00 Build 0)  -->
<!DOCTYPE svg PUBLIC "-//W3C//DTD SVG 1.1//EN" "http://www.w3.org/Graphics/SVG/1.1/DTD/svg11.dtd">
<svg version="1.1" xmlns="http://www.w3.org/2000/svg" xmlns:xlink="http://www.w3.org/1999/xlink" x="0px" y="0px"
	 viewBox="0 0 90 90" style="enable-background:new 0 0 90 90;" xml:space="preserve">
<style type="text/css">
	.st0{fill:#959595;}
	.st1{fill:#D0D0D0;}
	.st2{fill:#373737;}
	.st3{fill:none;stroke:#959595;stroke-width:4;stroke-linecap:square;stroke-miterlimit:10;}
	.st4{fill:#FFFFFF;}
</style>
<g id="Layer_1">
	<g>
		<path class="st1" d="M25.2,48.7c-0.9,1.4-2.7,1.8-4.1,0.9l0,0c-1.4-0.9-1.8-2.7-0.9-4.1l6.4-10.2c0.9-1.4,2.7-1.8,4.1-0.9l0,0
			c1.4,0.9,1.8,2.7,0.9,4.1L25.2,48.7z"/>
		<path class="st1" d="M44.4,48.7c-0.9,1.4-2.7,1.8-4.1,0.9l0,0c-1.4-0.9-1.8-2.7-0.9-4.1l6.4-10.2c0.9-1.4,2.7-1.8,4.1-0.9l0,0
			c1.4,0.9,1.8,2.7,0.9,4.1L44.4,48.7z"/>
		<path class="st1" d="M63.5,48.7c-0.9,1.4-2.7,1.8-4.1,0.9l0,0c-1.4-0.9-1.8-2.7-0.9-4.1l6.4-10.2c0.9-1.4,2.7-1.8,4.1-0.9l0,0
			c1.4,0.9,1.8,2.7,0.9,4.1L63.5,48.7z"/>
	</g>
	<g>
		<path class="st1" d="M72,12c6.6,0,12,5.4,12,12v36c0,6.6-5.4,12-12,12H57h-2.5l-1.8,1.8L45,81.5l-7.8-7.8L35.5,72H33H18
			c-6.6,0-12-5.4-12-12V24c0-6.6,5.4-12,12-12H72 M72,6H18C8.1,6,0,14.1,0,24v36c0,9.9,8.1,18,18,18h15l12,12l12-12h15
			c9.9,0,18-8.1,18-18V24C90,14.1,81.9,6,72,6L72,6z"/>
	</g>
</g>
<g id="Layer_2">
</g>
</svg>
